# xmcd CD database file
#
# Track frame offsets:
#	150
#	25235
#	42971
#	57742
#	91260
#	107772
#	128292
#	134356
#	159760
#	174892
#	191648
#
# Disc length: 2615 seconds
#
# Revision: 0
# Processed by: cddbd v1.5.2PL0 Copyright (c) Steve Scherf et al.
# Submitted via: CDex 1.51
#
DISCID=850a350b
DTITLE=Roger Girke Band - My Baby Loves That Stuff
DYEAR=2004
DGENRE=Blues
TTITLE0=Make It Funky
TTITLE1=My Baby Loves That Stuff
TTITLE2=All By Myself
TTITLE3=Daddy
TTITLE4=September
TTITLE5=You're Right - I'm Wrong
TTITLE6=Back Porch
TTITLE7=Myself To Blame
TTITLE8=Getting' Back To New Orleans
TTITLE9=Bulldozer BLues
TTITLE10=Make it Funky (reprise)
EXTD=YEAR: 2004
EXTT0=
EXTT1=
EXTT2=
EXTT3=
EXTT4=
EXTT5=
EXTT6=
EXTT7=
EXTT8=
EXTT9=
EXTT10=
PLAYORDER=
